<svg width="24" height="24" viewBox="0 0 24 24" fill="none" xmlns="http://www.w3.org/2000/svg">
<circle cx="12" cy="12" r="12" fill="#EDEBFF"/>
<path fill-rule="evenodd" clip-rule="evenodd" d="M9.34875 6.03229C9.31225 6.0494 9.25253 6.08704 9.21604 6.11593C9.17954 6.14483 8.48082 6.68349 7.66333 7.31298C6.84584 7.94246 6.14575 8.49017 6.10758 8.5301C5.99179 8.65126 5.96854 8.79835 6.04233 8.94277C6.08598 9.02818 6.10663 9.0464 6.52202 9.36617C6.7191 9.51787 7.4145 10.054 8.06734 10.5575C8.72019 11.061 9.28398 11.4914 9.32023 11.5139C9.37691 11.5491 9.39865 11.5548 9.47614 11.5549C9.56094 11.5549 9.56894 11.5522 9.61376 11.5088C9.70048 11.4248 9.70043 11.4255 9.70043 10.5237V9.71625L12.1987 9.72054C14.6901 9.72481 14.6974 9.7249 14.8429 9.75328C15.4235 9.86647 15.8951 10.1079 16.3011 10.4998C16.6675 10.8535 16.8962 11.236 17.0517 11.7552C17.1173 11.9741 17.1853 12.1015 17.298 12.2166C17.5889 12.5139 18.0029 12.5849 18.3797 12.4021C18.4861 12.3504 18.5234 12.323 18.6188 12.2266C18.7436 12.1004 18.8075 11.9942 18.8592 11.827C18.9012 11.6911 18.9017 11.4699 18.8603 11.316C18.6905 10.6849 18.3942 10.1046 17.9695 9.5716C17.8256 9.391 17.4585 9.02509 17.2715 8.87586C16.6927 8.41381 15.9855 8.08433 15.2756 7.94591C14.847 7.86233 15.0334 7.86746 12.2455 7.86261L9.70119 7.85817L9.6975 7.01913L9.69379 6.18009L9.66299 6.11756C9.60551 6.00087 9.48536 5.96826 9.34875 6.03229ZM6.86041 12.5235C6.44694 12.606 6.14298 12.959 6.12056 13.3828C6.11265 13.5324 6.12493 13.6065 6.1982 13.8506C6.69599 15.5092 8.0992 16.7615 9.81171 17.0754C10.2129 17.149 10.201 17.1487 12.8544 17.1487H15.3008V17.9624C15.3008 18.8711 15.3007 18.8698 15.3874 18.9539C15.4322 18.9973 15.4402 19 15.525 19C15.6048 19 15.6234 18.9948 15.6894 18.9536C15.8195 18.8724 18.8587 16.5209 18.9125 16.4597C19.0485 16.3054 19.0236 16.0813 18.8544 15.9361C18.8159 15.9031 18.2171 15.4388 17.5237 14.9044C16.8303 14.37 16.1405 13.838 15.9909 13.7223C15.669 13.4733 15.6103 13.4402 15.5059 13.4488C15.445 13.4539 15.4249 13.4625 15.3863 13.4999C15.3009 13.5826 15.3008 13.5842 15.3008 14.4836V15.2907H12.8795C10.7871 15.2907 10.437 15.288 10.3016 15.2705C9.20184 15.1284 8.3005 14.3704 7.98231 13.32C7.88733 13.0064 7.83288 12.9061 7.67748 12.7585C7.4607 12.5526 7.15514 12.4647 6.86041 12.5235Z" fill="#2E2764"/>
</svg>
