<svg width="32" height="32" viewBox="0 0 32 32" fill="none" xmlns="http://www.w3.org/2000/svg">
<path d="M9.06403 3.16199H20.664C23.5822 5.22876 26.1267 7.77796 28.188 10.7V28.542H9.06403V3.16199Z" fill="url(#paint0_linear_19_16)"/>
<path d="M9.06403 3.16199H20.664C23.5822 5.22876 26.1267 7.77796 28.188 10.7V28.542H9.06403V3.16199Z" stroke="#C8C8C8" stroke-width="0.5"/>
<path d="M20.662 3.16199C23.5765 5.23374 26.1209 7.78213 28.188 10.7C27.5007 9.99367 26.6675 9.44604 25.7465 9.09539C24.8255 8.74475 23.839 8.59956 22.856 8.66999C22.9962 7.64064 22.8678 6.59254 22.4834 5.62744C22.0989 4.66234 21.4715 3.81304 20.662 3.16199V3.16199Z" fill="url(#paint1_linear_19_16)"/>
<path d="M20.662 3.16199C23.5765 5.23374 26.1209 7.78213 28.188 10.7C27.5007 9.99367 26.6675 9.44604 25.7465 9.09539C24.8255 8.74475 23.839 8.59956 22.856 8.66999C22.9962 7.64064 22.8678 6.59254 22.4834 5.62744C22.0989 4.66234 21.4715 3.81304 20.662 3.16199V3.16199Z" stroke="#C8C8C8" stroke-width="0.5"/>
<path d="M5.33899 6.49597H19.439V9.19597H5.33899V6.49597Z" stroke="#C8C8C8" stroke-width="4"/>
<path d="M15.819 19.855C16.285 18.941 16.819 17.912 17.239 16.878L17.407 16.47C16.853 14.362 16.521 12.67 16.818 11.576C16.8803 11.4287 16.9877 11.305 17.1248 11.2227C17.262 11.1403 17.4217 11.1037 17.581 11.118H17.835C18.319 11.111 18.546 11.726 18.572 11.965C18.5757 12.3272 18.5282 12.6881 18.431 13.037C18.4548 12.6661 18.3999 12.2943 18.27 11.946C18.07 11.507 17.879 11.246 17.708 11.203C17.6471 11.2523 17.5977 11.3142 17.5632 11.3845C17.5287 11.4548 17.5098 11.5317 17.508 11.61C17.4572 11.9205 17.4315 12.2345 17.431 12.549C17.4546 13.4738 17.6002 14.3914 17.864 15.278C17.918 15.122 17.964 14.972 18.004 14.831C18.063 14.609 18.437 13.14 18.437 13.14C18.437 13.14 18.343 15.096 18.211 15.687C18.183 15.812 18.152 15.936 18.119 16.062C18.5618 17.3316 19.2965 18.4794 20.264 19.413C20.644 19.7427 21.06 20.0285 21.504 20.265C22.3371 20.1394 23.1785 20.0762 24.021 20.076C24.6968 20.0079 25.3765 20.1597 25.959 20.509C26.0873 20.6385 26.1632 20.8109 26.172 20.993C26.1677 21.0881 26.1539 21.1826 26.131 21.275C26.141 21.224 26.141 20.975 25.376 20.729C24.3577 20.5353 23.3133 20.5207 22.29 20.686C23.856 21.452 25.383 21.833 25.866 21.605C25.968 21.5369 26.0567 21.4508 26.128 21.351C26.0944 21.5165 26.0455 21.6786 25.982 21.835C25.8856 21.9575 25.754 22.0475 25.605 22.093C24.841 22.293 22.853 21.825 21.12 20.835C19.1634 21.1354 17.2345 21.5939 15.352 22.206C13.677 25.142 12.417 26.49 11.393 25.977L11.016 25.788C10.9473 25.7326 10.897 25.6576 10.8718 25.5729C10.8466 25.4883 10.8477 25.398 10.875 25.314C10.994 24.73 11.727 23.849 13.199 22.97C13.357 22.87 14.063 22.501 14.063 22.501C14.063 22.501 13.54 23.007 13.418 23.106C12.243 24.069 11.376 25.28 11.397 25.75V25.791C12.397 25.649 13.892 23.617 15.816 19.852L15.819 19.855ZM16.426 20.164C16.1243 20.7285 15.8156 21.2892 15.5 21.846C17.1042 21.2031 18.7718 20.7312 20.475 20.438C20.255 20.2867 20.0424 20.1249 19.838 19.953C18.9598 19.1956 18.2452 18.267 17.738 17.224C17.3671 18.2331 16.9271 19.2155 16.421 20.164" fill="#F91D0A"/>
<path d="M3.75 4.96802H21.014V10.771H3.75V4.96802Z" fill="url(#paint2_linear_19_16)"/>
<path d="M21.343 11.119H3.43701V4.62H21.343V11.119ZM20.7 5.264H4.08101V10.473H20.7V5.264Z" fill="url(#paint3_linear_19_16)"/>
<path d="M8.26202 5.81902H9.51802C9.67662 5.80887 9.83553 5.8332 9.98381 5.89034C10.1321 5.94748 10.2663 6.03607 10.377 6.15002C10.5924 6.41292 10.6997 6.74792 10.677 7.08702C10.6996 7.42764 10.5924 7.7642 10.377 8.02902C10.266 8.14243 10.1317 8.23046 9.98344 8.28708C9.83516 8.3437 9.67639 8.36756 9.51802 8.35702H9.01802V9.70602H8.26202V5.81902ZM9.01902 6.54502V7.63102H9.43802C9.50166 7.63465 9.56529 7.62386 9.62416 7.59944C9.68304 7.57502 9.73564 7.53762 9.77802 7.49002C9.86376 7.37492 9.90625 7.23331 9.89802 7.09002C9.90721 6.94662 9.86463 6.80468 9.77802 6.69002C9.73568 6.64236 9.68309 6.60492 9.62421 6.5805C9.56532 6.55608 9.50167 6.54531 9.43802 6.54902H9.01902V6.54502ZM11.968 6.58002V8.94902H12.239C12.3723 8.95793 12.5058 8.93543 12.6287 8.88332C12.7517 8.83122 12.8607 8.75096 12.947 8.64902C13.1275 8.3907 13.2143 8.07844 13.193 7.76402C13.2143 7.45145 13.1282 7.14099 12.949 6.88402C12.8623 6.7821 12.7529 6.7019 12.6296 6.6498C12.5063 6.59771 12.3726 6.57519 12.239 6.58402H11.968V6.58002ZM11.211 5.82602H12.011C12.3452 5.80899 12.6798 5.84993 13 5.94702C13.2236 6.03401 13.4183 6.18194 13.562 6.37402C13.7024 6.55472 13.8067 6.76082 13.869 6.98102C13.939 7.23465 13.9727 7.49693 13.969 7.76002C13.9727 8.02541 13.939 8.29 13.869 8.54602C13.8067 8.76622 13.7024 8.97232 13.562 9.15302C13.4165 9.34567 13.2206 9.49445 12.996 9.58302C12.6751 9.68043 12.34 9.7227 12.005 9.70802H11.205V5.81902L11.211 5.82602ZM14.547 5.81902H16.6V6.57702H15.31V7.30002H16.519V8.05802H15.31V9.70602H14.553V5.81902" fill="#FFF9F9"/>
<defs>
<linearGradient id="paint0_linear_19_16" x1="14.6468" y1="23.0436" x2="21.7209" y2="10.2583" gradientUnits="userSpaceOnUse">
<stop stop-color="white"/>
<stop offset="1" stop-color="#E1E1E1"/>
</linearGradient>
<linearGradient id="paint1_linear_19_16" x1="23.557" y1="7.73099" x2="24.645" y2="6.72799" gradientUnits="userSpaceOnUse">
<stop stop-color="white"/>
<stop offset="1" stop-color="#C8C8C8"/>
</linearGradient>
<linearGradient id="paint2_linear_19_16" x1="14.059" y1="13.031" x2="10.705" y2="2.70802" gradientUnits="userSpaceOnUse">
<stop offset="0.127" stop-color="#8A0000"/>
<stop offset="0.244" stop-color="#900000" stop-opacity="0.999"/>
<stop offset="0.398" stop-color="#A00000" stop-opacity="0.999"/>
<stop offset="0.573" stop-color="#BC0000" stop-opacity="0.998"/>
<stop offset="0.761" stop-color="#E20000" stop-opacity="0.997"/>
<stop offset="0.867" stop-color="#FA0000" stop-opacity="0.996"/>
</linearGradient>
<linearGradient id="paint3_linear_19_16" x1="14.2" y1="13.44" x2="10.581" y2="2.299" gradientUnits="userSpaceOnUse">
<stop offset="0.315" stop-color="#5E0000"/>
<stop offset="0.444" stop-color="#830000" stop-opacity="0.999"/>
<stop offset="0.618" stop-color="#AE0000" stop-opacity="0.998"/>
<stop offset="0.775" stop-color="#CD0000" stop-opacity="0.997"/>
<stop offset="0.908" stop-color="#E00000" stop-opacity="0.996"/>
<stop offset="1" stop-color="#E70000" stop-opacity="0.996"/>
</linearGradient>
</defs>
</svg>
