<svg width="24" height="24" viewBox="0 0 24 24" fill="none" xmlns="http://www.w3.org/2000/svg">
<circle cx="12" cy="12" r="12" fill="#EDEBFF"/>
<path fill-rule="evenodd" clip-rule="evenodd" d="M8.6844 5.00309L8.46725 5.01431V6.72762V8.44096L6.73949 8.43707L5.01172 8.43314L5.00213 12.8798C4.99529 16.0369 5.00462 17.371 5.03427 17.48C5.09326 17.6969 5.33922 17.9304 5.5785 17.9966C5.73357 18.0396 6.30639 18.0476 8.80714 18.0421C10.4792 18.0384 11.9367 18.0336 12.046 18.0315L12.2447 18.0276L12.0794 17.8267C11.8259 17.5183 11.7023 17.3282 11.5171 16.9615C11.1788 16.2915 11.0411 15.7534 11.0097 14.979C10.992 14.5411 11.0019 14.3824 11.07 14.0097C11.2897 12.8077 11.9281 11.7812 12.9257 11.0256C13.2914 10.7486 13.9121 10.4329 14.3398 10.3064C14.5267 10.251 14.7051 10.1922 14.7363 10.1757C14.7855 10.1496 14.7943 9.86184 14.8031 7.99891C14.8098 6.59199 14.7994 5.78774 14.7732 5.66516C14.7249 5.43931 14.597 5.24869 14.4092 5.12279L14.2698 5.02927L11.5857 5.01057C10.1094 5.00028 8.80382 4.99692 8.6844 5.00309ZM6.45606 6.4228C5.67205 7.19952 5.03061 7.84757 5.03061 7.8629C5.03061 7.87824 5.67639 7.89077 6.46569 7.89077H7.90077V6.45067C7.90077 5.65862 7.89643 5.01057 7.89114 5.01057C7.88585 5.01057 7.24007 5.64609 6.45606 6.4228ZM13.3077 7.91527C13.3516 7.95466 13.3767 8.02913 13.3767 8.12014C13.3767 8.38631 13.429 8.37943 11.3893 8.38063L9.58148 8.38167L9.49643 8.28375C9.38661 8.15732 9.38884 8.05932 9.5041 7.94519L9.59677 7.85336H11.4177C13.0591 7.85336 13.2454 7.85946 13.3077 7.91527ZM12.6248 9.68102C12.7183 9.7954 12.7163 9.91364 12.6187 10.0365L12.5404 10.1351H9.38729C7.23693 10.1351 6.21032 10.1225 6.15926 10.0954C5.97406 9.9972 5.99751 9.68846 6.1957 9.6159C6.25858 9.59285 7.45756 9.58175 9.42419 9.58597L12.5526 9.5927L12.6248 9.68102ZM15.3594 10.6471C15.0932 10.6813 14.6253 10.7842 14.4153 10.8549C13.3908 11.1994 12.4799 11.9932 12.0005 12.9592C11.7896 13.3841 11.7273 13.5674 11.6367 14.0304C11.461 14.9282 11.5917 15.8812 12.0008 16.6859C12.6046 17.8735 13.6795 18.6811 15.0123 18.9486C15.4761 19.0417 16.4122 19.0037 16.8889 18.8725C17.3287 18.7514 17.9939 18.4316 18.3259 18.1816C19.0936 17.6037 19.647 16.7761 19.8975 15.8317C19.9801 15.5203 19.9955 15.3783 19.9997 14.8855C20.0048 14.2751 19.9533 13.9234 19.7889 13.4472C19.4366 12.4269 18.5598 11.4727 17.5496 11.0104C16.9066 10.7162 15.9969 10.5653 15.3594 10.6471ZM11.0994 11.3882C11.2738 11.5092 11.238 11.7726 11.0359 11.8555C10.9714 11.8819 10.1776 11.8915 8.61238 11.8846C6.3843 11.8749 6.28136 11.8714 6.20526 11.8032C6.10239 11.7109 6.10118 11.522 6.2028 11.4139L6.27981 11.332H8.64913C10.695 11.332 11.0296 11.3397 11.0994 11.3882ZM18.3729 12.9995C18.6276 13.1664 18.7265 13.5033 18.6059 13.7926C18.5663 13.8876 18.0367 14.4392 16.9348 15.5332C16.0476 16.414 15.2758 17.1589 15.2197 17.1884C15.0732 17.2655 14.7607 17.2562 14.5932 17.1698C14.3933 17.0666 13.0532 15.7189 12.9815 15.5489C12.7301 14.9529 13.3302 14.3896 13.9063 14.6809C13.9587 14.7073 14.2051 14.9306 14.4539 15.1771L14.9062 15.6253L16.249 14.2997C17.2617 13.3 17.6285 12.9606 17.7408 12.9195C17.938 12.8473 18.1893 12.8791 18.3729 12.9995ZM10.3933 13.1649C10.5605 13.3305 10.436 13.6128 10.195 13.6148C10.1275 13.6153 9.21523 13.6152 8.16773 13.6145C6.03222 13.6129 6.1258 13.6252 6.1258 13.3483C6.1258 13.0805 6.04479 13.0901 8.30573 13.0901C10.2674 13.0901 10.3196 13.092 10.3933 13.1649ZM10.3138 14.9007C10.4175 14.9937 10.4195 15.1962 10.3178 15.297C10.2441 15.3699 10.1919 15.3718 8.2714 15.3718H6.30062L6.21319 15.2905C6.0602 15.1481 6.113 14.912 6.31463 14.8368C6.34578 14.8251 7.24048 14.8187 8.30282 14.8225C10.1439 14.8291 10.2381 14.8328 10.3138 14.9007Z" fill="#2E2764"/>
</svg>
