<svg width="24" height="24" viewBox="0 0 24 24" fill="none" xmlns="http://www.w3.org/2000/svg">
<circle cx="12" cy="12" r="12" fill="#EDEBFF"/>
<path fill-rule="evenodd" clip-rule="evenodd" d="M5.95538 5.15678C5.40297 5.43195 5.37566 5.54103 4.89296 9.39224C4.65675 11.2776 4.35915 13.6266 4.2317 14.6122C4.10434 15.5977 4 16.5443 4 16.7157C3.99992 17.138 4.27963 17.6072 4.66025 17.823C4.93451 17.9785 5.07899 17.9988 5.92301 18C6.63368 18.0009 6.87643 17.9764 6.87736 17.9038C6.87806 17.8503 6.8015 17.4837 6.70728 17.0891L6.53588 16.3718L6.10025 16.349L5.66463 16.3262L6.02556 13.5214C6.22412 11.9788 6.40711 10.7693 6.43217 10.8336C6.4573 10.8978 6.69304 11.8795 6.95602 13.015C8.00016 17.5232 7.97262 17.4356 8.46216 17.8016C8.67426 17.9602 8.7456 17.9623 13.9563 17.9623C19.167 17.9623 19.2384 17.9602 19.4505 17.8016C19.7774 17.5572 19.9546 17.2794 19.9981 16.9427C20.0268 16.7206 19.7387 15.357 18.9376 11.9243C17.3548 5.14174 17.4837 5.58099 16.9607 5.18997C16.7494 5.03197 16.6608 5.02901 11.5193 5.00906C6.30231 4.98881 6.29196 4.98904 5.95538 5.15678ZM16.0059 6.68489C16.0367 6.73499 17.0753 11.0891 17.9712 14.9238C18.1213 15.5666 18.2623 16.1541 18.2843 16.2294C18.3222 16.3591 18.0885 16.3654 13.8645 16.3463L9.40476 16.3262L9.12467 15.1186C8.97061 14.4544 8.66134 13.1397 8.43734 12.197C8.21334 11.2543 7.83988 9.67661 7.6074 8.69106C7.37492 7.7055 7.16547 6.83783 7.1419 6.7628C7.10144 6.63402 7.34582 6.62646 11.5346 6.62646C13.9741 6.62646 15.9862 6.65279 16.0059 6.68489ZM13.7636 9.48963C13.5639 9.95023 13.1826 10.8355 12.9162 11.4568C12.6499 12.0782 12.4066 12.5783 12.3756 12.5684C12.3446 12.5584 12.0311 12.2105 11.679 11.7953C11.3268 11.38 11.0036 11.0289 10.9609 11.0149C10.9181 11.0011 10.681 11.1736 10.434 11.3986L9.98495 11.8074L10.7309 12.7034C11.5235 13.6555 11.915 13.9499 12.3879 13.9499C12.7294 13.9499 13.2832 13.6885 13.4359 13.4551C13.6113 13.1869 15.2858 9.25683 15.2589 9.17612C15.2404 9.12049 14.2497 8.6521 14.1505 8.6521C14.1374 8.6521 13.9633 9.02903 13.7636 9.48963Z" fill="#2E2764"/>
</svg>
