<svg width="24" height="24" viewBox="0 0 24 24" fill="none" xmlns="http://www.w3.org/2000/svg">
<circle cx="12" cy="12" r="12" fill="#EDEBFF"/>
<path fill-rule="evenodd" clip-rule="evenodd" d="M6.09072 6.08848L6.00097 6.18286L6.28388 8.1366C6.43952 9.21116 6.57709 10.1005 6.58961 10.1128C6.60213 10.1252 6.89002 9.86157 7.22934 9.5269C7.56869 9.19227 7.86149 8.91848 7.88001 8.91848C7.89852 8.91848 8.41799 9.41584 9.03434 10.0237C9.65069 10.6316 10.1951 11.1554 10.2441 11.1877C10.3749 11.2738 10.7494 11.2666 10.9077 11.175C11.209 11.0007 11.3707 10.6453 11.2914 10.3317C11.2726 10.2574 10.8622 9.82175 10.0819 9.04803L8.90091 7.87685L9.54627 7.23845C9.90127 6.88733 10.1833 6.59177 10.1731 6.58168C10.1629 6.57156 9.30672 6.44436 8.27058 6.299C7.2344 6.1536 6.34025 6.02553 6.28356 6.0144C6.20993 5.99987 6.15487 6.02105 6.09072 6.08848ZM15.7911 6.27979C14.7236 6.4318 13.8401 6.56607 13.8279 6.57812C13.8156 6.59017 14.0911 6.88305 14.4399 7.22897L15.0741 7.85788L14.0416 8.89847C12.7375 10.2126 12.6875 10.272 12.6875 10.5069C12.6875 10.9625 13.1288 11.3421 13.5645 11.2614C13.6999 11.2363 13.8746 11.0806 14.9157 10.0576L16.1114 8.88254L16.757 9.51085L17.4026 10.1392L17.4357 10.0191C17.4539 9.95306 17.5883 9.05259 17.7344 8.01809L18 6.13715L17.9123 6.06699C17.8641 6.02841 17.8038 5.99831 17.7784 6.00007C17.753 6.00187 16.8588 6.12775 15.7911 6.27979ZM10.3032 12.7819C10.227 12.8145 9.66852 13.3302 9.02684 13.9604C8.39931 14.5767 7.87697 15.0812 7.86611 15.0814C7.85521 15.0817 7.56869 14.8082 7.22934 14.4735C6.89002 14.1389 6.60188 13.8755 6.589 13.8882C6.57615 13.9009 6.43835 14.7907 6.28279 15.8656L6 17.82L6.09202 17.91L6.18404 18L8.16952 17.718C9.26154 17.5628 10.1633 17.4278 10.1735 17.418C10.1837 17.4081 9.90657 17.1182 9.55778 16.7736L8.92352 16.1472L10.0539 15.0161C10.6756 14.3939 11.2145 13.8271 11.2515 13.7565C11.2986 13.6665 11.3134 13.564 11.3008 13.4141C11.2789 13.1529 11.1273 12.9439 10.8633 12.8107C10.6585 12.7073 10.4963 12.699 10.3032 12.7819ZM13.2345 12.75C13.104 12.7822 12.9322 12.9192 12.8055 13.0921C12.6521 13.3012 12.6396 13.6086 12.7771 13.7858C12.8264 13.8493 13.3655 14.4043 13.975 15.019L15.0832 16.1366L14.4445 16.7685C14.0931 17.1161 13.8142 17.4089 13.8247 17.4192C13.8351 17.4295 14.7457 17.565 15.8482 17.7202C17.7818 17.9925 17.8553 17.9999 17.9259 17.9301C17.9966 17.8603 17.9898 17.7913 17.734 15.9796C17.5882 14.9466 17.4539 14.0474 17.4358 13.9813L17.4027 13.8613L16.7557 14.4905L16.1086 15.1197L14.9349 13.9595C13.6487 12.6881 13.6064 12.658 13.2345 12.75Z" fill="#2E2764"/>
</svg>
