<svg width="24" height="24" viewBox="0 0 24 24" fill="none" xmlns="http://www.w3.org/2000/svg">
<circle cx="12" cy="12" r="12" fill="#E0FDFF"/>
<path fill-rule="evenodd" clip-rule="evenodd" d="M11.4667 5.04171C11.1925 5.09623 10.9932 5.1648 10.732 5.29437C10.4289 5.44476 10.2827 5.54863 9.98263 5.8266C9.55718 6.22074 9.36865 6.28165 8.80492 6.20718C7.21683 5.99735 5.82093 7.03306 5.53895 8.63043C5.49997 8.85145 5.49346 9.01073 5.51022 9.33504C5.53145 9.74566 5.5302 9.75756 5.44913 9.92609C5.38935 10.0504 5.28949 10.1687 5.08903 10.3527C4.61227 10.7902 4.36484 11.1397 4.18082 11.6356C3.90128 12.389 3.94768 13.2374 4.30735 13.9495C4.48865 14.3084 4.59576 14.4473 5.0139 14.8659C5.48787 15.3404 5.5231 15.4075 5.50297 15.7973C5.4607 16.6145 5.83197 17.4984 6.45642 18.067C7.099 18.652 7.92376 18.9057 8.80492 18.7893C9.36865 18.7148 9.55718 18.7757 9.98263 19.1699C10.2823 19.4475 10.4285 19.5513 10.732 19.7024C11.5133 20.0911 12.4602 20.0996 13.2237 19.7246C13.5743 19.5524 13.728 19.4413 14.0773 19.1076C14.2493 18.9433 14.4373 18.7853 14.4951 18.7566C14.6722 18.6685 14.8936 18.6639 15.2365 18.7411C15.6148 18.8263 16.1534 18.836 16.4852 18.7636C17.5403 18.5335 18.3668 17.7644 18.6717 16.7287C18.777 16.3707 18.8078 16 18.7722 15.5179C18.7521 15.2457 18.7538 15.09 18.7778 15.0043C18.825 14.8355 18.9757 14.6096 19.2405 14.3108C20.0552 13.3913 20.2302 12.1182 19.6891 11.047C19.5078 10.6881 19.4007 10.5491 18.9826 10.1306C18.5086 9.65609 18.4733 9.58896 18.4935 9.19913C18.5358 8.38192 18.1645 7.49811 17.54 6.9295C16.8975 6.34444 16.0727 6.09077 15.1915 6.20718C14.6278 6.28165 14.4393 6.22074 14.0138 5.8266C13.529 5.37742 13.0953 5.15127 12.5035 5.03903C12.2235 4.98593 11.7409 4.98719 11.4667 5.04171ZM16.3315 8.66693C16.445 8.77858 16.4647 8.87784 16.4059 9.0421C16.3684 9.14664 10.5228 16.1378 10.3957 16.2301C10.2851 16.3104 10.1157 16.3103 10.0053 16.2298C9.91857 16.1666 8.18016 13.1426 8.11297 12.9381C8.08718 12.8595 8.09118 12.8241 8.13304 12.7613C8.23547 12.6075 8.33085 12.645 8.96556 13.0877C10.0194 13.8229 10.1138 13.8819 10.2347 13.8819C10.2956 13.8819 10.376 13.8666 10.4136 13.8478C10.4512 13.829 11.6426 12.6749 13.0612 11.2832C14.54 9.83246 15.7065 8.71216 15.7952 8.65758C16.0156 8.52189 16.1871 8.52487 16.3315 8.66693Z" fill="#129AA3"/>
</svg>
