<svg width="24" height="24" viewBox="0 0 24 24" fill="none" xmlns="http://www.w3.org/2000/svg">
<circle cx="12" cy="12" r="12" fill="#FFE0E0"/>
<path fill-rule="evenodd" clip-rule="evenodd" d="M6.30639 5.02948C6.19862 5.06963 6.09788 5.16453 6.04314 5.27744L6 5.36644V11.268C6 16.996 6.0009 17.1718 6.03046 17.2482C6.05717 17.3172 6.16224 17.4252 6.88393 18.125C7.79417 19.0076 7.77583 18.993 7.9771 18.9943C8.19001 18.9957 8.15818 19.0204 9.04643 18.1638L9.84726 17.3914L10.039 17.5717C10.7182 18.2103 11.4539 18.8891 11.4989 18.9186C11.5878 18.9771 11.7106 19.0082 11.8121 18.9981C11.9521 18.9841 12.0503 18.9255 12.2635 18.7284L12.4573 18.5492L12.3499 18.5021C12.092 18.389 11.708 18.1599 11.4245 17.9499C10.418 17.2045 9.71962 16.119 9.47704 14.9231L9.41721 14.6281L8.90346 14.628C8.32789 14.6279 8.29448 14.6231 8.17206 14.5217C8.02641 14.4011 7.98169 14.1848 8.06787 14.0176C8.11317 13.9297 8.17089 13.8751 8.27625 13.8206C8.34056 13.7874 8.3637 13.7858 8.85746 13.781L9.37168 13.7761L9.38255 13.5923C9.40258 13.253 9.47983 12.8344 9.585 12.4954L9.64844 12.2909L9.00397 12.283C8.39361 12.2756 8.35563 12.2734 8.28628 12.2422C8.17982 12.1944 8.1154 12.1358 8.06787 12.0435C7.98132 11.8756 8.02639 11.66 8.17351 11.5382C8.29905 11.4343 8.30989 11.4332 9.22897 11.4332L10.0518 11.4332L10.0992 11.3506C10.179 11.2115 10.3918 10.9153 10.5429 10.7329C10.7064 10.5355 11.0643 10.183 11.2542 10.0322L11.3826 9.93029L9.85478 9.92243C8.15218 9.91366 8.27378 9.92221 8.14988 9.80249C8.11514 9.76891 8.07321 9.71312 8.05667 9.6785C8.02244 9.60676 8.01645 9.46033 8.04383 9.36493C8.06792 9.28102 8.22229 9.13308 8.31257 9.1074C8.40912 9.07992 11.6457 9.07992 11.7423 9.1074C11.8767 9.14564 12.0289 9.33496 12.0289 9.46393C12.0289 9.48241 12.0348 9.49751 12.0421 9.49751C12.0493 9.49751 12.139 9.45556 12.2414 9.40427C12.7526 9.14829 13.3308 8.97722 13.9834 8.88882C14.2668 8.85044 14.982 8.85044 15.2654 8.88882C16.1248 9.00522 16.7454 9.22586 17.5262 9.69255C17.5418 9.7019 17.5451 9.45554 17.5416 8.54263L17.5372 7.38083L17.492 7.29198C17.4536 7.21623 17.2824 7.04666 16.3327 6.14347C15.5669 5.41513 15.1944 5.07142 15.1412 5.04415L15.0637 5.00448L10.7271 5.0013C6.43115 4.99815 6.38976 4.99842 6.30639 5.02948ZM14.5256 5.70223C14.6157 5.75087 14.7018 5.85708 14.7296 5.95381C14.7398 5.98937 14.7463 6.29521 14.7463 6.7474L14.7464 7.48312H15.6222C16.6396 7.48312 16.6201 7.48086 16.7584 7.61466C16.843 7.69649 16.8944 7.80733 16.8944 7.90803C16.8944 8.04929 16.7835 8.2182 16.6429 8.29099C16.5773 8.32495 16.5732 8.32508 15.5112 8.32508H14.4454L14.3522 8.28869C14.2127 8.23419 14.0782 8.13069 14.0004 8.01813C13.8735 7.83424 13.8759 7.85657 13.8759 6.85363C13.8759 5.96533 13.8759 5.9644 13.9122 5.89317C14.0277 5.66641 14.3014 5.58124 14.5256 5.70223ZM14.0955 9.72706C12.3647 9.92667 10.9006 11.1321 10.4195 12.7538C10.3 13.1568 10.2537 13.4841 10.2537 13.927C10.2537 14.7839 10.4925 15.5582 10.9709 16.2525C11.1653 16.5346 11.2988 16.6923 11.5408 16.9256C12.2541 17.6133 13.187 18.0388 14.1994 18.1382C14.4465 18.1624 15.0351 18.1493 15.2672 18.1143C16.8037 17.8831 18.0747 16.9222 18.674 15.5388C18.995 14.7979 19.0837 13.9118 18.9189 13.0935C18.8791 12.8959 18.7701 12.5434 18.6901 12.3539C18.0792 10.9058 16.7244 9.90412 15.137 9.7267C14.8685 9.69669 14.3573 9.69688 14.0955 9.72706ZM17.3858 11.8288C17.7389 11.9018 17.9742 12.2021 17.9474 12.5453C17.9326 12.7341 17.8665 12.8467 17.6149 13.1119C16.2096 14.593 15.177 15.595 14.6159 16.0223C14.051 16.4525 13.6851 16.4979 13.2103 16.1968C13.0279 16.0812 12.8027 15.903 12.5252 15.6548C12.2184 15.3804 11.4241 14.6007 11.3669 14.5178C11.2809 14.3933 11.256 14.3065 11.256 14.1322C11.2561 13.9879 11.2604 13.966 11.3081 13.8684C11.4463 13.5861 11.7525 13.4246 12.0547 13.4747C12.2665 13.5098 12.2961 13.5322 12.8822 14.0998C13.3374 14.5407 13.7389 14.9073 13.7839 14.9232C13.804 14.9303 14.1223 14.6544 14.4866 14.3141C14.9907 13.8433 15.7667 13.0604 16.5446 12.238C16.6785 12.0963 16.8177 11.9608 16.8538 11.9367C17.018 11.8275 17.2006 11.7904 17.3858 11.8288Z" fill="#EF3E3E"/>
</svg>
