<svg width="24" height="24" viewBox="0 0 24 24" fill="none" xmlns="http://www.w3.org/2000/svg">
<circle cx="12" cy="12" r="12" fill="#EDF8FF"/>
<path fill-rule="evenodd" clip-rule="evenodd" d="M19.0778 7.04338C19.0466 7.06763 18.9937 7.09362 18.9602 7.10114C18.9268 7.10866 18.8881 7.12848 18.8742 7.1452C18.8604 7.16193 18.8214 7.18252 18.7875 7.19097C18.7537 7.19942 18.7108 7.21967 18.6921 7.23596C18.6733 7.25225 18.6325 7.27311 18.6013 7.28232C18.5701 7.29152 18.5293 7.31188 18.5105 7.32758C18.4918 7.34326 18.439 7.36814 18.3932 7.38287C18.3474 7.39757 18.2977 7.42443 18.2827 7.44254C18.2677 7.46065 18.2376 7.47547 18.2159 7.47547C18.1941 7.47547 18.1504 7.49592 18.1186 7.52091C18.0869 7.54591 18.0545 7.56636 18.0466 7.56636C17.9944 7.56636 17.7391 7.71074 17.7084 7.75758C17.6576 7.83524 17.66 8.05046 17.7141 8.26806C17.7378 8.36329 17.7739 8.50767 17.7944 8.58891C17.8149 8.67015 17.8452 8.79285 17.8616 8.86159C17.8781 8.93033 17.9071 9.0377 17.926 9.10018C17.945 9.16267 17.9727 9.25982 17.9877 9.31606C18.0374 9.50298 18.0979 9.71287 18.122 9.78189C18.1697 9.91916 18.2187 10.0795 18.2399 10.1682C18.2518 10.2182 18.2758 10.2949 18.293 10.3386C18.3103 10.3823 18.3519 10.5102 18.3856 10.6226C18.4192 10.7351 18.4654 10.8783 18.4883 10.9408C18.5112 11.0033 18.5369 11.0902 18.5455 11.1339C18.5541 11.1777 18.5689 11.2237 18.5783 11.2362C18.5877 11.2487 18.6085 11.2998 18.6245 11.3498C18.6519 11.4353 18.7095 11.5649 18.766 11.6679C18.7797 11.6929 18.8021 11.7338 18.8158 11.7588C18.956 12.0146 19.1919 12.2539 19.3853 12.3366C19.4993 12.3853 19.5223 12.3883 19.5852 12.3628C19.6243 12.3469 19.7125 12.321 19.7811 12.3052C19.8497 12.2894 19.962 12.2593 20.0307 12.2384C20.0993 12.2174 20.2269 12.179 20.3143 12.1531C20.4016 12.1271 20.5242 12.0875 20.5865 12.0651C20.6489 12.0427 20.7289 12.0179 20.7642 12.01C20.7995 12.0021 20.867 11.97 20.9142 11.9388L21 11.8819L20.966 11.7749C20.9473 11.7161 20.913 11.6242 20.8898 11.5707C20.8665 11.5173 20.8475 11.4581 20.8475 11.4392C20.8475 11.4203 20.827 11.3647 20.8021 11.3157C20.7771 11.2667 20.7567 11.2079 20.7567 11.1851C20.7567 11.1622 20.7363 11.1034 20.7113 11.0544C20.6864 11.0054 20.666 10.9514 20.666 10.9345C20.666 10.9176 20.6465 10.8558 20.6228 10.7973C20.599 10.7387 20.5644 10.6448 20.5458 10.5886C20.5271 10.5323 20.4849 10.4147 20.4519 10.3272C20.4189 10.2398 20.3778 10.1222 20.3607 10.0659C20.3436 10.0097 20.3025 9.89209 20.2695 9.80461C20.1747 9.55395 20.1143 9.3865 20.0317 9.14563C20.0102 9.08314 19.9798 8.99623 19.9641 8.95248C19.8228 8.55964 19.7272 8.28819 19.7001 8.20261C19.6823 8.14637 19.6575 8.07991 19.645 8.05491C19.6325 8.02991 19.6076 7.96345 19.5897 7.90721C19.5718 7.85097 19.5308 7.73338 19.4986 7.64589C19.4664 7.55841 19.4084 7.3948 19.3697 7.28232C19.331 7.16984 19.29 7.05992 19.2785 7.03804C19.2508 6.98516 19.1492 6.98784 19.0778 7.04338ZM17.0581 8.29532C16.5866 8.51965 16.4107 8.58839 16.1619 8.64551C16.0869 8.66276 15.995 8.68982 15.9577 8.70568C15.9057 8.72782 15.604 8.73416 14.6535 8.73302C13.5587 8.73173 13.3884 8.72673 13.1674 8.68941C12.8259 8.63177 12.1782 8.62827 12.0775 8.68353C12.0397 8.70434 11.9714 8.72836 11.9259 8.73691C11.8803 8.74547 11.8255 8.7719 11.804 8.79567C11.7826 8.81944 11.7558 8.83887 11.7445 8.83887C11.7271 8.83887 11.5571 8.96132 11.5225 8.99884C11.5162 9.00559 11.4393 9.05672 11.3515 9.11246C11.2637 9.1682 11.1719 9.22684 11.1473 9.24277C11.1228 9.2587 11.0619 9.29224 11.012 9.31733C10.9621 9.34239 10.9059 9.37234 10.8872 9.38389C10.8685 9.39543 10.7919 9.43383 10.717 9.46921C10.4113 9.61375 10.3331 9.68061 10.0451 10.0432C9.96615 10.1427 9.77565 10.5159 9.77524 10.572C9.77513 10.5873 9.74992 10.6511 9.71923 10.7135C9.68853 10.776 9.66309 10.8438 9.66271 10.8642C9.66232 10.8845 9.64669 10.9138 9.62797 10.9294C9.60925 10.945 9.59376 10.9692 9.59353 10.9833C9.59303 11.0143 9.47104 11.1976 9.41708 11.2485C9.30375 11.3553 9.12544 11.5774 9.10219 11.6408C9.06398 11.7449 9.06648 11.8541 9.10856 11.9184C9.12862 11.9491 9.20199 12.0068 9.2716 12.0467C9.3926 12.116 9.40878 12.1191 9.63786 12.1179C9.85309 12.1167 9.89195 12.1098 10.0188 12.0507C10.1805 11.9754 10.3682 11.8261 10.4808 11.6834C10.5234 11.6294 10.5786 11.5618 10.6036 11.5332C10.6285 11.5047 10.6643 11.4582 10.683 11.43C10.9266 11.0631 11.1644 10.8374 11.4803 10.6729C11.759 10.5279 11.9296 10.4865 12.2485 10.4864L12.5321 10.4863L12.7241 10.584C12.8297 10.6377 12.9318 10.6967 12.951 10.7152C13.0973 10.8557 13.4166 11.0661 13.6552 11.1793C13.7363 11.2178 13.818 11.2588 13.8367 11.2704C13.8554 11.2819 13.9371 11.3247 14.0182 11.3653C14.0993 11.4059 14.2347 11.483 14.3191 11.5365C14.4034 11.59 14.4769 11.6338 14.4824 11.6338C14.4879 11.6338 14.54 11.6671 14.5981 11.7077C14.7233 11.7952 14.7426 11.8082 15.0188 11.9902C15.1361 12.0674 15.2432 12.1405 15.2569 12.1525C15.2705 12.1645 15.3114 12.1912 15.3476 12.2118C15.3839 12.2323 15.4544 12.2734 15.5043 12.303C15.6459 12.387 16.0947 12.6109 16.1214 12.6109C16.1346 12.6109 16.1572 12.6252 16.1716 12.6426C16.1861 12.6601 16.2323 12.6808 16.2742 12.6887C16.3162 12.6966 16.363 12.7181 16.3783 12.7365C16.3936 12.7549 16.4165 12.77 16.4293 12.77C16.5041 12.77 17.1621 13.1365 17.2646 13.2353C17.2843 13.2543 17.3099 13.2701 17.3213 13.2703C17.3327 13.2705 17.3822 13.3114 17.4312 13.3612C17.5284 13.4601 17.6177 13.4792 17.6881 13.4162C17.7099 13.3966 17.7686 13.3505 17.8185 13.3137C17.9785 13.1955 18.1065 13.082 18.3375 12.8534C18.4615 12.7305 18.5895 12.6133 18.6219 12.5929C18.6542 12.5725 18.7142 12.531 18.755 12.5007C18.84 12.4377 18.8414 12.4419 18.6633 12.2072C18.6133 12.1414 18.5545 12.0545 18.5326 12.0141C18.4229 11.8119 18.2614 11.4676 18.2051 11.3157C18.1704 11.222 18.1239 11.0993 18.1018 11.043C18.0797 10.9868 18.0545 10.8974 18.0459 10.8443C18.0372 10.7913 18.0214 10.7425 18.0107 10.7359C18.0001 10.7292 17.9842 10.6755 17.9755 10.6164C17.9667 10.5574 17.9446 10.4681 17.9263 10.4181C17.908 10.3681 17.8799 10.2659 17.864 10.1909C17.848 10.1159 17.8242 10.0239 17.8112 9.9864C17.7385 9.77766 17.6711 9.54272 17.6711 9.49852C17.6711 9.47069 17.6564 9.41568 17.6385 9.3763C17.6206 9.33692 17.5912 9.24845 17.5731 9.17972C17.555 9.11098 17.5293 9.02406 17.516 8.98657C17.4438 8.78317 17.3972 8.60347 17.3747 8.44157C17.3609 8.34177 17.3447 8.25231 17.3388 8.24274C17.3162 8.20618 17.1996 8.22802 17.0581 8.29532ZM5.16143 8.38792C5.14231 8.41723 5.10499 8.49233 5.07849 8.55482C5.05201 8.61731 5.01636 8.69912 4.9993 8.73661C4.95045 8.84398 4.80318 9.18401 4.6155 9.62282C4.59946 9.66032 4.5655 9.73701 4.54004 9.79325C4.4487 9.99496 4.40189 10.1023 4.3419 10.2477C4.30839 10.3289 4.2629 10.4363 4.24082 10.4863C4.20253 10.573 4.18465 10.6125 4.04874 10.911C4.01637 10.9821 3.98989 11.0485 3.98993 11.0587C3.98996 11.0688 3.96806 11.1231 3.94124 11.1794C3.91443 11.2356 3.87483 11.3225 3.85326 11.3725C3.83168 11.4225 3.78723 11.5207 3.75447 11.5907C3.72171 11.6607 3.69491 11.7264 3.69491 11.7369C3.69491 11.7473 3.67343 11.8025 3.64718 11.8596C3.62093 11.9166 3.57875 12.0093 3.55345 12.0656C3.52815 12.1218 3.48965 12.2036 3.46789 12.2474C3.44613 12.2911 3.42129 12.3594 3.41269 12.3992C3.40409 12.4389 3.38238 12.4836 3.36448 12.4985C3.34655 12.5134 3.3319 12.5412 3.3319 12.5603C3.3319 12.5794 3.30467 12.6523 3.27141 12.7223C3.23813 12.7923 3.19084 12.8956 3.16634 12.9518C3.14181 13.008 3.10415 13.0898 3.08266 13.1336C3.06115 13.1773 3.03649 13.2438 3.02783 13.2813C3.01918 13.3188 3.007 13.3667 3.00078 13.3877C2.98914 13.4271 3.10699 13.4927 3.39996 13.6103C3.4686 13.6378 3.56559 13.6799 3.6155 13.7038C3.66542 13.7277 3.71579 13.7472 3.72745 13.7472C3.73911 13.7471 3.79016 13.7665 3.84089 13.7901C4.14896 13.9337 4.60926 14.0116 4.86517 13.9634C5.05369 13.928 5.11871 13.8709 5.19644 13.6726C5.23184 13.5823 5.27601 13.4814 5.29464 13.4482C5.31327 13.415 5.32858 13.3741 5.32869 13.3573C5.32881 13.3405 5.35402 13.2756 5.38471 13.2131C5.41541 13.1506 5.44118 13.0893 5.442 13.0768C5.44282 13.0643 5.46319 13.0131 5.48731 12.9632C5.51143 12.9132 5.53155 12.8569 5.53208 12.8382C5.53257 12.8194 5.55327 12.7734 5.57806 12.7359C5.60286 12.6984 5.62321 12.6535 5.62328 12.6362C5.62337 12.6188 5.64316 12.5625 5.66723 12.5112C5.76456 12.3037 5.82764 12.1492 5.82764 12.1185C5.82764 12.1006 5.84715 12.0481 5.871 12.0019C5.89484 11.9557 5.93468 11.8668 5.9595 11.8043C5.98435 11.7418 6.0312 11.628 6.06362 11.5515C6.09607 11.4749 6.12259 11.3969 6.12259 11.3781C6.12259 11.3594 6.13725 11.3318 6.15517 11.3169C6.17307 11.302 6.19485 11.2573 6.20357 11.2176C6.21228 11.1778 6.23846 11.1097 6.26174 11.0661C6.28504 11.0225 6.30417 10.9714 6.30426 10.9525C6.30433 10.9336 6.32468 10.8874 6.34948 10.8499C6.37427 10.8124 6.39463 10.766 6.39469 10.7467C6.39478 10.7275 6.41527 10.6717 6.44023 10.6226C6.46519 10.5736 6.4857 10.5229 6.48581 10.5099C6.48592 10.4969 6.51113 10.4352 6.54183 10.3727C6.57253 10.3102 6.59796 10.2435 6.59835 10.2244C6.59873 10.2053 6.61291 10.1695 6.62986 10.1448C6.64679 10.1202 6.67376 10.0591 6.6898 10.0091C6.70584 9.95913 6.73282 9.89805 6.74975 9.87339C6.7667 9.84876 6.78056 9.81363 6.78056 9.79536C6.78056 9.77709 6.79989 9.72058 6.82351 9.66977C6.8906 9.52545 6.96207 9.26166 6.96207 9.15836C6.96207 8.99738 6.88148 8.92601 6.58771 8.82685C6.33779 8.7425 6.22728 8.70087 6.20445 8.68253C6.19061 8.67142 6.14358 8.65467 6.0999 8.64531C6.05623 8.63595 5.98492 8.6092 5.94142 8.58589C5.89793 8.56255 5.84177 8.54339 5.81663 8.5433C5.7915 8.54324 5.74029 8.52285 5.70285 8.49802C5.66542 8.47318 5.61437 8.45257 5.58941 8.45223C5.56445 8.45186 5.50049 8.43178 5.44729 8.4076C5.39408 8.3834 5.31583 8.35709 5.2734 8.34911C5.20867 8.33695 5.19063 8.3432 5.16143 8.38792ZM7.24853 9.67511C7.21897 9.72201 7.18727 9.79588 7.17808 9.83931C7.1689 9.88271 7.14205 9.95011 7.11844 9.98908C7.09482 10.028 7.07544 10.0741 7.07537 10.0913C7.07528 10.1086 7.05895 10.1534 7.03903 10.1909C7.01913 10.2284 6.98829 10.3072 6.97053 10.366C6.95274 10.4249 6.92826 10.4792 6.9161 10.4867C6.90394 10.4942 6.89391 10.5176 6.8938 10.5388C6.89368 10.5599 6.86848 10.6283 6.83778 10.6908C6.80708 10.7533 6.78165 10.8182 6.78126 10.835C6.78088 10.8518 6.76538 10.8927 6.74684 10.9259C6.72828 10.9591 6.69677 11.0322 6.6768 11.0885C6.65686 11.1447 6.626 11.2316 6.60828 11.2816C6.59054 11.3316 6.56626 11.3897 6.55433 11.4106C6.5424 11.4316 6.49627 11.5441 6.45182 11.6606C6.40735 11.7771 6.35594 11.8996 6.33754 11.9327C6.31914 11.9659 6.3041 12.007 6.3041 12.024C6.3041 12.041 6.28368 12.0931 6.25872 12.1397C6.23376 12.1863 6.21303 12.2373 6.21264 12.253C6.21226 12.2686 6.18682 12.3326 6.15612 12.3951C6.12543 12.4576 6.10022 12.5215 6.10011 12.5372C6.09999 12.5528 6.07948 12.6038 6.05452 12.6505C6.02957 12.6971 6.00915 12.7482 6.00915 12.7641C6.00915 12.7799 5.98873 12.831 5.96377 12.8777C5.93881 12.9243 5.91839 12.9754 5.91839 12.9913C5.91839 13.0071 5.89797 13.0583 5.87302 13.1049C5.84806 13.1516 5.82732 13.2052 5.82694 13.2241C5.82655 13.2431 5.80112 13.3097 5.77042 13.3722C5.73972 13.4347 5.71451 13.5031 5.7144 13.5242C5.71429 13.5453 5.70494 13.5684 5.69364 13.5754C5.65403 13.5999 5.59962 13.7979 5.6243 13.8277C5.63708 13.8431 5.71102 13.878 5.78864 13.9052C6.18176 14.0433 6.24554 14.0755 6.46292 14.2463C6.61196 14.3634 6.70791 14.4288 6.73076 14.4288C6.74181 14.4288 6.76908 14.449 6.79138 14.4737C6.81368 14.4983 6.85262 14.5251 6.87791 14.5332C6.90324 14.5412 6.98101 14.5875 7.05078 14.636C7.12052 14.6845 7.18911 14.7242 7.2032 14.7242C7.21727 14.7242 7.24148 14.7396 7.25702 14.7583C7.30029 14.8105 7.35378 14.7995 7.45146 14.7182C7.65963 14.5449 7.86739 14.5059 8.13817 14.5891C8.23381 14.6185 8.33638 14.6609 8.36615 14.6834C8.39592 14.7058 8.43492 14.7242 8.45284 14.7242C8.47076 14.7242 8.57132 14.8102 8.67628 14.9153C8.87385 15.1132 8.91056 15.1288 9.00404 15.0542C9.02276 15.0393 9.0738 15.0135 9.11748 14.9968C9.16116 14.9802 9.20767 14.9584 9.22083 14.9485C9.27117 14.9106 9.58727 14.8782 9.76376 14.8929C10.0499 14.9167 10.1614 14.9859 10.4134 15.2963L10.4728 15.3695L10.6327 15.3447C10.7596 15.325 10.8339 15.3269 10.993 15.3537C11.1033 15.3722 11.219 15.4013 11.2502 15.4182C11.2814 15.4351 11.3284 15.4589 11.3546 15.4711C11.4804 15.5293 11.6128 15.7536 11.6131 15.9091C11.6133 16.0225 11.7029 16.2672 11.7542 16.2947C11.781 16.3091 11.8831 16.3298 11.9811 16.3408C12.1621 16.3611 12.2769 16.4143 12.3966 16.5337C12.581 16.7175 12.6664 17.1285 12.5974 17.5C12.58 17.5935 12.6976 17.6686 12.9663 17.7356C13.2385 17.8034 13.3135 17.8049 13.4964 17.7464C13.5745 17.7214 13.6469 17.701 13.6573 17.701C13.7477 17.701 14.0178 17.4048 14.0185 17.305C14.0195 17.1817 14.1095 17.1736 14.4039 17.27C14.5887 17.3305 14.7739 17.3195 14.9371 17.2384C15.0735 17.1706 15.1281 17.1142 15.2091 16.9571C15.2659 16.8469 15.2699 16.8213 15.2628 16.6123C15.2585 16.4881 15.2634 16.3781 15.2736 16.3679C15.2838 16.3577 15.3859 16.3484 15.5003 16.3473C15.6676 16.3456 15.7308 16.3348 15.8219 16.2924C16.0471 16.1876 16.1783 16.0437 16.2468 15.8263C16.3062 15.6377 16.3119 15.5818 16.2852 15.4514C16.271 15.3826 16.2467 15.2567 16.2311 15.1716C16.2154 15.0865 16.1918 15.006 16.1785 14.9927C16.1509 14.965 16.167 14.906 16.2021 14.906C16.2228 14.906 16.3534 14.9637 16.5366 15.054C16.5678 15.0693 16.6612 15.0944 16.7441 15.1097C16.9121 15.1406 17.1232 15.1125 17.173 15.0525C17.1879 15.0344 17.2099 15.0196 17.2218 15.0196C17.2488 15.0196 17.3505 14.9173 17.4148 14.8256C17.4829 14.7284 17.5577 14.4937 17.5573 14.3784C17.5569 14.2446 17.4848 14.0259 17.3992 13.8989C17.291 13.7384 17.068 13.5291 16.8656 13.3982C16.6006 13.2268 16.6004 13.2267 16.514 13.1877C16.4703 13.1679 16.4192 13.1386 16.4005 13.1225C16.3818 13.1064 16.334 13.0863 16.2943 13.0778C16.2546 13.0694 16.21 13.0478 16.1951 13.0299C16.1802 13.0119 16.1557 12.9972 16.1407 12.9972C16.1092 12.9972 15.4423 12.6607 15.425 12.636C15.4187 12.6271 15.3804 12.6063 15.3398 12.5899C15.2993 12.5734 15.2661 12.5517 15.2661 12.5415C15.2661 12.5314 15.2433 12.5159 15.2155 12.507C15.1876 12.4982 15.1391 12.4733 15.1077 12.4517C15.0763 12.4301 14.9331 12.336 14.7896 12.2427C14.6461 12.1494 14.4408 12.0151 14.3333 11.9443C14.2259 11.8735 14.131 11.8156 14.1225 11.8156C14.1141 11.8156 14.0744 11.7933 14.0343 11.766C13.8735 11.6564 13.845 11.6395 13.7909 11.6226C13.7599 11.6129 13.7295 11.5975 13.7233 11.5885C13.717 11.5793 13.6221 11.5279 13.5124 11.4742C13.4027 11.4204 13.3076 11.3678 13.3012 11.3574C13.2948 11.347 13.2711 11.3384 13.2485 11.3384C13.226 11.3384 13.1832 11.3196 13.1534 11.2964C13.1237 11.2734 13.0713 11.2476 13.037 11.2392C13.0027 11.2308 12.923 11.1716 12.8598 11.1077C12.5853 10.8299 12.3832 10.7689 12.003 10.849C11.8586 10.8794 11.7231 10.9268 11.6359 10.9774C11.6172 10.9882 11.5661 11.0166 11.5225 11.0405C11.3994 11.1078 11.239 11.2743 10.9402 11.6452C10.6335 12.0258 10.609 12.0533 10.5035 12.1338C10.4625 12.165 10.4019 12.2122 10.3688 12.2386C10.3357 12.265 10.2831 12.2943 10.2519 12.3037C10.2207 12.3132 10.1799 12.3339 10.1612 12.3497C10.0996 12.4019 9.81422 12.4604 9.61663 12.4614C9.40481 12.4624 9.16528 12.4068 9.0748 12.3355C9.04499 12.312 9.01057 12.2928 8.99832 12.2928C8.96488 12.2928 8.80794 12.124 8.76184 12.0384C8.73348 11.9858 8.72179 11.9158 8.72274 11.8043C8.7246 11.5878 8.76926 11.5023 9.09574 11.0891C9.33887 10.7815 9.40043 10.6731 9.48969 10.3954C9.51664 10.3115 9.66171 9.97076 9.70977 9.87846C9.72644 9.8464 9.72086 9.83869 9.68081 9.83869C9.65352 9.83869 9.59984 9.84887 9.56152 9.8613C9.5232 9.87376 9.38325 9.90954 9.25053 9.94083C8.96299 10.0087 8.5762 10.0184 8.42548 9.96156C8.37556 9.94274 8.28368 9.91148 8.22128 9.89207C8.15889 9.87266 8.09763 9.84903 8.08515 9.83958C8.07267 9.8301 8.02929 9.81606 7.98872 9.80838C7.94818 9.80068 7.86961 9.77368 7.81414 9.74837C7.75866 9.72305 7.69684 9.70235 7.67676 9.70235C7.65668 9.70235 7.59739 9.68329 7.54505 9.65997C7.49271 9.63666 7.41665 9.61135 7.37606 9.60373C7.30925 9.59117 7.29718 9.59792 7.24853 9.67511ZM7.71322 14.9333C7.63809 14.9741 7.57445 15.1034 7.57572 15.2124C7.57688 15.3126 7.65348 15.5543 7.72315 15.6776C7.76967 15.76 7.9774 15.974 8.01082 15.974C8.02153 15.974 8.05792 15.9931 8.09173 16.0165C8.12556 16.0399 8.21193 16.0722 8.2837 16.0883C8.39081 16.1124 8.43036 16.1122 8.50459 16.0877C8.58394 16.0615 8.60045 16.0433 8.63932 15.9392C8.68268 15.8232 8.68274 15.8165 8.64256 15.6303C8.58711 15.3734 8.52413 15.245 8.39973 15.1353C8.19703 14.9566 7.85525 14.856 7.71322 14.9333ZM9.30393 15.2752C9.1715 15.3261 8.97899 15.4972 8.8886 15.6445C8.76102 15.8524 8.72354 15.9896 8.72445 16.2456C8.72519 16.4531 8.73314 16.5027 8.78366 16.6151C8.9364 16.955 9.14264 17.0512 9.50319 16.9505C9.55934 16.9348 9.62636 16.903 9.65211 16.8798C9.67789 16.8565 9.70952 16.8375 9.72238 16.8375C9.75566 16.8375 9.93912 16.6192 9.97234 16.5401C10.0007 16.4727 10.0456 16.4509 10.0503 16.5023C10.0517 16.5179 10.0546 16.6534 10.0567 16.8034C10.0601 17.0516 10.0659 17.0867 10.1218 17.1939C10.3257 17.5857 10.6745 17.6252 11.0006 17.2935C11.1093 17.183 11.2264 17.0232 11.2271 16.9846C11.2273 16.9717 11.2479 16.9437 11.2729 16.9223C11.2979 16.9009 11.3183 16.8679 11.3183 16.849C11.3183 16.8301 11.3387 16.7765 11.3636 16.7298C11.4238 16.6174 11.4214 16.4851 11.354 16.1976C11.3016 15.9744 11.2937 15.9581 11.1962 15.8715C11.1335 15.8158 11.0512 15.7691 10.9847 15.7514C10.9248 15.7354 10.8337 15.7111 10.7823 15.6973C10.7308 15.6835 10.6605 15.6793 10.6261 15.688C10.5458 15.7082 10.3059 15.9478 10.2629 16.0508C10.1888 16.2285 10.1543 16.1743 10.1497 15.8732C10.1456 15.6017 10.0965 15.4775 9.95378 15.3771C9.73917 15.226 9.52104 15.1919 9.30393 15.2752ZM10.1381 16.2751C10.1379 16.3157 10.1279 16.3643 10.1158 16.383C10.0999 16.4077 10.0937 16.3872 10.0934 16.3092C10.0932 16.2498 10.1033 16.2012 10.1158 16.2012C10.1283 16.2012 10.1383 16.2345 10.1381 16.2751ZM11.5051 16.7416C11.4519 16.7881 11.4085 16.8398 11.4087 16.8566C11.4089 16.8734 11.3886 16.9131 11.3636 16.9449C11.3387 16.9767 11.3183 17.022 11.3183 17.0456C11.3183 17.0692 11.2979 17.1468 11.2729 17.2179C11.2063 17.4078 11.213 17.5655 11.295 17.7333C11.4607 18.0725 11.8228 18.0907 12.0855 17.773C12.2394 17.5869 12.287 17.2913 12.2032 17.0422C12.1479 16.8778 12.1001 16.8077 11.9823 16.7182C11.9116 16.6645 11.8792 16.6558 11.751 16.6564C11.6118 16.657 11.5954 16.6627 11.5051 16.7416Z" fill="#30B1FE"/>
</svg>
