<svg width="24" height="24" viewBox="0 0 24 24" fill="none" xmlns="http://www.w3.org/2000/svg">
<circle cx="12" cy="12" r="12" fill="#DAD6FF"/>
<path fill-rule="evenodd" clip-rule="evenodd" d="M11.8018 4.3744L11.3159 4.7488L10.5487 4.72626C9.83346 4.70529 9.77059 4.71593 9.61902 4.8839C9.52956 4.98298 9.39641 5.2237 9.32307 5.41878C9.10718 5.99315 8.94416 6.1746 8.47181 6.36629C7.67609 6.6893 7.6204 6.79965 7.69366 7.9074C7.72223 8.33879 7.70275 8.41959 7.49618 8.72573C7.04034 9.4013 7.00038 9.48194 7 9.72715C6.99977 9.89945 7.0945 10.1001 7.30718 10.3777C7.73614 10.9377 7.778 11.0862 7.6835 11.7145C7.56753 12.4853 7.63743 12.6204 8.31979 12.9457C8.97869 13.2598 9.05287 13.3372 9.3521 14.0228C9.47808 14.3116 9.65355 14.5877 9.74194 14.6365C9.84927 14.6958 10.1309 14.7075 10.5881 14.6719L11.2734 14.6186L11.6942 14.9464C12.4351 15.5235 12.5649 15.5235 13.3058 14.9464L13.7266 14.6186L14.4119 14.6719C14.8691 14.7075 15.1507 14.6958 15.2581 14.6365C15.3464 14.5877 15.5219 14.3116 15.6479 14.0228C15.9471 13.3372 16.0213 13.2598 16.6802 12.9457C17.3626 12.6204 17.4325 12.4853 17.3165 11.7145C17.222 11.0862 17.2639 10.9377 17.6928 10.3777C17.9055 10.1001 18.0002 9.89945 18 9.72715C17.9996 9.48194 17.9597 9.4013 17.5038 8.72573C17.2973 8.41959 17.2778 8.33879 17.3063 7.9074C17.3796 6.79965 17.3239 6.6893 16.5282 6.36629C16.0558 6.1746 15.8928 5.99315 15.6769 5.41878C15.6036 5.2237 15.4704 4.98298 15.381 4.8839C15.2294 4.71593 15.1666 4.70529 14.4498 4.72626L13.6811 4.7488L13.1976 4.3744C12.8901 4.13636 12.6364 4 12.5008 4C12.3656 4 12.1099 4.13691 11.8018 4.3744ZM13.5661 5.3774C15.0045 5.77237 16.1753 6.93073 16.6354 8.41399C16.8761 9.18967 16.8604 10.3152 16.5982 11.0921C16.0833 12.6178 14.8812 13.7198 13.3718 14.0498C12.7058 14.1954 12.2942 14.1954 11.6282 14.0498C10.1188 13.7198 8.91665 12.6178 8.40176 11.0921C8.13957 10.3152 8.12391 9.18967 8.36455 8.41399C8.81887 6.94941 9.98824 5.7812 11.4005 5.38111C11.9037 5.23852 13.0532 5.23663 13.5661 5.3774ZM11.3499 5.80382C9.88747 6.28668 8.81971 7.57793 8.59779 9.13189C8.19641 11.9425 10.7143 14.308 13.4096 13.6524C15.3536 13.1797 16.6822 11.191 16.4053 9.16839C16.1854 7.56154 15.0783 6.23663 13.5747 5.78097C13.0115 5.61032 11.9015 5.62167 11.3499 5.80382ZM15.066 8.61451C15.2271 8.8174 15.3205 8.99995 15.2812 9.03565C15.2432 9.07025 14.5151 9.74268 13.6633 10.5298C12.8115 11.3169 12.0888 11.9609 12.0574 11.9609C12.0045 11.9609 11.104 11.0286 10.4016 10.2466L10.1008 9.91159L10.3992 9.59631C10.5633 9.4229 10.7235 9.28102 10.7552 9.28102C10.787 9.28102 11.0998 9.58709 11.4503 9.96125L12.0877 10.6414L13.3776 9.44891C14.087 8.79296 14.6931 8.25635 14.7245 8.25635C14.7559 8.25635 14.9096 8.41754 15.066 8.61451ZM9.11658 14.3774C9.09374 14.4157 8.73155 15.3684 8.31177 16.4947C7.8919 17.621 7.52491 18.6032 7.49618 18.6774C7.45371 18.7871 7.63346 18.7467 8.45997 18.4606C9.01887 18.2672 9.50092 18.109 9.53132 18.109C9.56173 18.109 9.82101 18.5343 10.1075 19.0541C10.394 19.5741 10.6473 19.9997 10.6705 20C10.7214 20.0009 12.2708 15.8217 12.2708 15.6837C12.2708 15.6303 12.2325 15.5867 12.1858 15.5867C12.139 15.5867 11.8932 15.4257 11.6394 15.2289L11.1781 14.871L10.5429 14.9242C9.80183 14.9863 9.52185 14.9005 9.30344 14.5446C9.22353 14.4145 9.1395 14.3392 9.11658 14.3774ZM15.7059 14.5278C15.5187 14.8886 15.2276 14.9829 14.4813 14.9249L13.8191 14.8732L13.3591 15.23C13.1062 15.4262 12.861 15.5867 12.8142 15.5867C12.7675 15.5867 12.7292 15.6303 12.7292 15.6837C12.7292 15.8217 14.2786 20.0009 14.3295 20C14.3527 19.9997 14.606 19.5741 14.8925 19.0541C15.179 18.5343 15.4383 18.109 15.4687 18.109C15.4991 18.109 15.9811 18.2672 16.54 18.4606C17.3665 18.7467 17.5463 18.7871 17.5038 18.6774C17.4751 18.6032 17.1083 17.6203 16.6888 16.4932C16.2694 15.366 15.9005 14.4165 15.8693 14.3831C15.838 14.3497 15.7645 14.4148 15.7059 14.5278Z" fill="#2E2764"/>
</svg>
