<svg width="24" height="24" viewBox="0 0 24 24" fill="none" xmlns="http://www.w3.org/2000/svg">
<circle cx="12" cy="12" r="12" fill="#E8FFED"/>
<path fill-rule="evenodd" clip-rule="evenodd" d="M8.41498 7.02425C8.36648 7.04268 8.25409 7.12698 8.16515 7.21157C7.85371 7.50793 8.00343 8.03484 8.44096 8.18236C8.63612 8.24816 8.64247 8.26053 8.68139 8.65199C8.81118 9.95887 9.15654 10.7966 9.88675 11.5757C10.354 12.0743 10.4136 12.1796 10.4136 12.5064C10.4136 12.8296 10.3567 12.9302 9.87464 13.459C9.59054 13.7706 9.39332 14.0633 9.20715 14.4497C8.94245 14.9989 8.70949 15.7852 8.70825 16.1334C8.7079 16.2354 8.69138 16.4192 8.67151 16.5419C8.64136 16.7283 8.60309 16.7757 8.43796 16.8314C7.98921 16.9826 7.85589 17.5029 8.18372 17.8237L8.3639 18H12.0008H15.6377L15.8179 17.8237C16.1457 17.5029 16.0124 16.9826 15.5636 16.8314C15.3985 16.7757 15.3602 16.7283 15.3301 16.5419C15.3102 16.4192 15.2937 16.2354 15.2933 16.1334C15.2921 15.7852 15.0591 14.9989 14.7944 14.4497C14.6083 14.0633 14.4111 13.7706 14.127 13.459C13.6452 12.9305 13.588 12.8295 13.588 12.5073C13.588 12.186 13.6877 12.0021 14.0609 11.6358C14.7949 10.9153 15.1814 9.99256 15.3237 8.62161C15.3608 8.26407 15.3704 8.24648 15.5618 8.182C16.0123 8.0301 16.1464 7.51051 15.8179 7.18906L15.6378 7.01272L12.0705 7.00173C10.1084 6.99573 8.46348 7.00582 8.41498 7.02425ZM14.4105 8.58877C14.4099 9.07377 14.2153 9.84756 13.9674 10.3505C13.8314 10.626 13.5921 10.956 13.292 11.2814C12.9082 11.6975 12.8103 11.8448 12.7302 12.1261C12.5579 12.7316 12.7344 13.1873 13.4177 13.9012C13.9792 14.4878 14.4109 15.5821 14.4109 16.4186V16.7692H12.0008H9.59066V16.4186C9.59066 15.5821 10.0224 14.4878 10.5839 13.9012C11.2658 13.1887 11.4436 12.7313 11.2724 12.1297C11.1939 11.854 11.0902 11.6974 10.7041 11.2717C10.4116 10.9492 10.1541 10.5935 10.0278 10.3372C9.78564 9.84624 9.59166 9.06938 9.59107 8.58877L9.59066 8.24354H12.0008H14.4109L14.4105 8.58877ZM11.0511 10.45C11.1151 10.5408 11.3021 10.7461 11.4667 10.9062C11.6312 11.0663 11.8112 11.2757 11.8666 11.3715C11.922 11.4673 11.9824 11.5457 12.0008 11.5457C12.0192 11.5457 12.0796 11.4673 12.135 11.3715C12.1904 11.2757 12.3704 11.0663 12.5349 10.9062C12.6995 10.7461 12.8865 10.5408 12.9505 10.45L13.0669 10.2849H12.0008H10.9347L11.0511 10.45ZM11.7714 13.7712C11.6614 13.9367 11.4987 14.1251 11.4098 14.1898C11.0742 14.4338 10.5312 15.5292 10.5312 15.9622V16.1087H12.0008H13.4704V15.9622C13.4704 15.5292 12.9274 14.4338 12.5918 14.1898C12.5029 14.1251 12.3402 13.9367 12.2302 13.7712C12.1202 13.6056 12.017 13.4701 12.0008 13.4701C11.9846 13.4701 11.8814 13.6056 11.7714 13.7712Z" fill="#116B25"/>
</svg>
