<svg width="24" height="24" viewBox="0 0 24 24" fill="none" xmlns="http://www.w3.org/2000/svg">
<circle cx="12" cy="12" r="12" fill="#E9EEFF"/>
<path fill-rule="evenodd" clip-rule="evenodd" d="M9.8975 4.01623C9.81893 4.06624 9.80269 4.2035 9.83843 4.51468L9.88779 4.94412L9.36481 5.18839C8.15339 5.75434 6.98586 6.79714 6.21632 8.00049C5.36054 9.33874 5 10.6207 5 12.3249C5 14.3749 5.7068 16.1616 7.1115 17.6624C7.70457 18.296 8.70272 19.022 9.45333 19.3655C11.3013 20.2115 13.7109 20.2115 15.5589 19.3655C16.8266 18.7853 18.1499 17.5952 18.8893 16.3705C19.6067 15.1822 20.046 13.6801 19.9962 12.5861L19.9714 12.045H19.3595H18.7476L18.652 12.794C18.5129 13.884 18.4165 14.2238 17.994 15.1131C17.6705 15.794 17.4996 16.0306 16.8336 16.7197C16.1599 17.4168 15.9461 17.581 15.2787 17.9147C14.2496 18.4292 13.5832 18.5872 12.4653 18.5819C10.7107 18.5734 9.45594 18.027 8.17264 16.7124C7.49538 16.0186 7.33693 15.7999 7.01278 15.1116C6.52399 14.074 6.36228 13.3636 6.36228 12.2552C6.36228 11.1395 6.52521 10.4279 7.01678 9.39725C7.34207 8.71505 7.5112 8.48187 8.17729 7.79724C8.73837 7.22053 9.11972 6.90868 9.53728 6.68501L10.1175 6.37425L10.1901 6.72998C10.2433 6.99089 10.3061 7.09184 10.4257 7.10865C10.6559 7.14101 12.7101 5.3992 12.7101 5.17166C12.7101 5.0022 12.6475 4.97312 10.4197 4.10793C10.1761 4.01328 9.96138 3.97554 9.8975 4.01623ZM9.97688 8.22164V8.64318L12.4857 8.6209L14.9946 8.59871L15.0194 8.19945L15.0443 7.80018H12.5106H9.97688V8.22164ZM10.3848 9.67312C10.3848 10.7475 10.7278 11.5156 11.4043 11.9562C11.6064 12.0878 11.7718 12.2268 11.7718 12.2652C11.7718 12.3035 11.6709 12.3895 11.5475 12.4562C11.2101 12.6386 10.7365 13.1793 10.5822 13.558C10.5069 13.7429 10.4266 14.2253 10.4038 14.6297L10.3622 15.3652H12.454H14.5458L14.544 14.6297C14.5414 13.5524 14.2066 12.891 13.4648 12.4979C13.1105 12.3102 13.0799 12.1978 13.3537 12.0906C13.6969 11.9562 14.158 11.4704 14.354 11.0369C14.5073 10.6977 14.5444 10.4734 14.545 9.88057L14.5458 9.14508H12.4653H10.3848V9.67312ZM9.97688 16.2887V16.7101H12.5106H15.0443L15.0194 16.3109L14.9946 15.9116L12.4857 15.8894L9.97688 15.8671V16.2887Z" fill="#1C18F7"/>
</svg>
