<svg width="24" height="24" viewBox="0 0 24 24" fill="none" xmlns="http://www.w3.org/2000/svg">
<circle cx="12" cy="12" r="12" fill="#FFEFF2"/>
<path fill-rule="evenodd" clip-rule="evenodd" d="M9.6844 5.00309L9.46725 5.01431V6.72762V8.44096L7.73949 8.43707L6.01172 8.43314L6.00213 12.8798C5.99529 16.0369 6.00462 17.371 6.03427 17.48C6.09326 17.6969 6.33922 17.9304 6.5785 17.9966C6.73357 18.0396 7.30639 18.0476 9.80714 18.0421C11.4792 18.0384 12.9367 18.0336 13.046 18.0315L13.2447 18.0276L13.0794 17.8267C12.8259 17.5183 12.7023 17.3282 12.5171 16.9615C12.1788 16.2915 12.0411 15.7534 12.0097 14.979C11.992 14.5411 12.0019 14.3824 12.07 14.0097C12.2897 12.8077 12.9281 11.7812 13.9257 11.0256C14.2914 10.7486 14.9121 10.4329 15.3398 10.3064C15.5267 10.251 15.7051 10.1922 15.7363 10.1757C15.7855 10.1496 15.7943 9.86184 15.8031 7.99891C15.8098 6.59199 15.7994 5.78774 15.7732 5.66516C15.7249 5.43931 15.597 5.24869 15.4092 5.12279L15.2698 5.02927L12.5857 5.01057C11.1094 5.00028 9.80382 4.99692 9.6844 5.00309ZM7.45606 6.4228C6.67205 7.19952 6.03061 7.84757 6.03061 7.8629C6.03061 7.87824 6.67639 7.89077 7.46569 7.89077H8.90077V6.45067C8.90077 5.65862 8.89643 5.01057 8.89114 5.01057C8.88585 5.01057 8.24007 5.64609 7.45606 6.4228ZM14.3077 7.91527C14.3516 7.95466 14.3767 8.02913 14.3767 8.12014C14.3767 8.38631 14.429 8.37943 12.3893 8.38063L10.5815 8.38167L10.4964 8.28375C10.3866 8.15732 10.3888 8.05932 10.5041 7.94519L10.5968 7.85336H12.4177C14.0591 7.85336 14.2454 7.85946 14.3077 7.91527ZM13.6248 9.68102C13.7183 9.7954 13.7163 9.91364 13.6187 10.0365L13.5404 10.1351H10.3873C8.23693 10.1351 7.21032 10.1225 7.15926 10.0954C6.97406 9.9972 6.99751 9.68846 7.1957 9.6159C7.25858 9.59285 8.45756 9.58175 10.4242 9.58597L13.5526 9.5927L13.6248 9.68102ZM16.3594 10.6471C16.0932 10.6813 15.6253 10.7842 15.4153 10.8549C14.3908 11.1994 13.4799 11.9932 13.0005 12.9592C12.7896 13.3841 12.7273 13.5674 12.6367 14.0304C12.461 14.9282 12.5917 15.8812 13.0008 16.6859C13.6046 17.8735 14.6795 18.6811 16.0123 18.9486C16.4761 19.0417 17.4122 19.0037 17.8889 18.8725C18.3287 18.7514 18.9939 18.4316 19.3259 18.1816C20.0936 17.6037 20.647 16.7761 20.8975 15.8317C20.9801 15.5203 20.9955 15.3783 20.9997 14.8855C21.0048 14.2751 20.9533 13.9234 20.7889 13.4472C20.4366 12.4269 19.5598 11.4727 18.5496 11.0104C17.9066 10.7162 16.9969 10.5653 16.3594 10.6471ZM12.0994 11.3882C12.2738 11.5092 12.238 11.7726 12.0359 11.8555C11.9714 11.8819 11.1776 11.8915 9.61238 11.8846C7.3843 11.8749 7.28136 11.8714 7.20526 11.8032C7.10239 11.7109 7.10118 11.522 7.2028 11.4139L7.27981 11.332H9.64913C11.695 11.332 12.0296 11.3397 12.0994 11.3882ZM19.3729 12.9995C19.6276 13.1664 19.7265 13.5033 19.6059 13.7926C19.5663 13.8876 19.0367 14.4392 17.9348 15.5332C17.0476 16.414 16.2758 17.1589 16.2197 17.1884C16.0732 17.2655 15.7607 17.2562 15.5932 17.1698C15.3933 17.0666 14.0532 15.7189 13.9815 15.5489C13.7301 14.9529 14.3302 14.3896 14.9063 14.6809C14.9587 14.7073 15.2051 14.9306 15.4539 15.1771L15.9062 15.6253L17.249 14.2997C18.2617 13.3 18.6285 12.9606 18.7408 12.9195C18.938 12.8473 19.1893 12.8791 19.3729 12.9995ZM11.3933 13.1649C11.5605 13.3305 11.436 13.6128 11.195 13.6148C11.1275 13.6153 10.2152 13.6152 9.16773 13.6145C7.03222 13.6129 7.1258 13.6252 7.1258 13.3483C7.1258 13.0805 7.04479 13.0901 9.30573 13.0901C11.2674 13.0901 11.3196 13.092 11.3933 13.1649ZM11.3138 14.9007C11.4175 14.9937 11.4195 15.1962 11.3178 15.297C11.2441 15.3699 11.1919 15.3718 9.2714 15.3718H7.30062L7.21319 15.2905C7.0602 15.1481 7.113 14.912 7.31463 14.8368C7.34578 14.8251 8.24048 14.8187 9.30282 14.8225C11.1439 14.8291 11.2381 14.8328 11.3138 14.9007Z" fill="#FC4B7C"/>
</svg>
