<svg width="24" height="24" viewBox="0 0 24 24" fill="none" xmlns="http://www.w3.org/2000/svg">
<circle cx="12" cy="12" r="12" fill="#FFF3E9"/>
<path fill-rule="evenodd" clip-rule="evenodd" d="M9.6844 6.00309L9.46725 6.01431V7.72762V9.44096L7.73949 9.43707L6.01172 9.43314L6.00213 13.8798C5.99529 17.0369 6.00462 18.371 6.03427 18.48C6.09326 18.6969 6.33922 18.9304 6.5785 18.9966C6.73357 19.0396 7.30639 19.0476 9.80714 19.0421C11.4792 19.0384 12.9367 19.0336 13.046 19.0315L13.2447 19.0276L13.0794 18.8267C12.8259 18.5183 12.7023 18.3282 12.5171 17.9615C12.1788 17.2915 12.0411 16.7534 12.0097 15.979C11.992 15.5411 12.0019 15.3824 12.07 15.0097C12.2897 13.8077 12.9281 12.7812 13.9257 12.0256C14.2914 11.7486 14.9121 11.4329 15.3398 11.3064C15.5267 11.251 15.7051 11.1922 15.7363 11.1757C15.7855 11.1496 15.7943 10.8618 15.8031 8.99891C15.8098 7.59199 15.7994 6.78774 15.7732 6.66516C15.7249 6.43931 15.597 6.24869 15.4092 6.12279L15.2698 6.02927L12.5857 6.01057C11.1094 6.00028 9.80382 5.99692 9.6844 6.00309ZM7.45606 7.4228C6.67205 8.19952 6.03061 8.84757 6.03061 8.8629C6.03061 8.87824 6.67639 8.89077 7.46569 8.89077H8.90077V7.45067C8.90077 6.65862 8.89643 6.01057 8.89114 6.01057C8.88585 6.01057 8.24007 6.64609 7.45606 7.4228ZM14.3077 8.91527C14.3516 8.95466 14.3767 9.02913 14.3767 9.12014C14.3767 9.38631 14.429 9.37943 12.3893 9.38063L10.5815 9.38167L10.4964 9.28375C10.3866 9.15732 10.3888 9.05932 10.5041 8.94519L10.5968 8.85336H12.4177C14.0591 8.85336 14.2454 8.85946 14.3077 8.91527ZM13.6248 10.681C13.7183 10.7954 13.7163 10.9136 13.6187 11.0365L13.5404 11.1351H10.3873C8.23693 11.1351 7.21032 11.1225 7.15926 11.0954C6.97406 10.9972 6.99751 10.6885 7.1957 10.6159C7.25858 10.5929 8.45756 10.5817 10.4242 10.586L13.5526 10.5927L13.6248 10.681ZM12.0994 12.3882C12.2738 12.5092 12.238 12.7726 12.0359 12.8555C11.9714 12.8819 11.1776 12.8915 9.61238 12.8846C7.3843 12.8749 7.28136 12.8714 7.20526 12.8032C7.10239 12.7109 7.10118 12.522 7.2028 12.4139L7.27981 12.332H9.64913C11.695 12.332 12.0296 12.3397 12.0994 12.3882ZM11.3933 14.1649C11.5605 14.3305 11.436 14.6128 11.195 14.6148C11.1275 14.6153 10.2152 14.6152 9.16773 14.6145C7.03222 14.6129 7.1258 14.6252 7.1258 14.3483C7.1258 14.0805 7.04479 14.0901 9.30573 14.0901C11.2674 14.0901 11.3196 14.092 11.3933 14.1649ZM11.3138 15.9007C11.4175 15.9937 11.4195 16.1962 11.3178 16.297C11.2441 16.3699 11.1919 16.3718 9.2714 16.3718H7.30062L7.21319 16.2905C7.0602 16.1481 7.113 15.912 7.31463 15.8368C7.34578 15.8251 8.24048 15.8187 9.30282 15.8225C11.1439 15.8291 11.2381 15.8328 11.3138 15.9007Z" fill="#F08639"/>
<path d="M16.5 12C14.5701 12 13 13.5701 13 15.5C13 17.4299 14.5701 19 16.5 19C18.4299 19 20 17.4299 20 15.5C20 13.5701 18.4299 12 16.5 12ZM18.5125 15.85H16.15V13.4H16.85V15.15H18.5125V15.85Z" fill="#F08639"/>
</svg>
